<?xml version="1.0"?><svg width="1141" height="803" xmlns="http://www.w3.org/2000/svg">

 <g>
  <title>Layer 1</title>
  <path id="svg_1" fill="#5F646B" fill-rule="evenodd" stroke="#5F646B" stroke-width="1px" d="m820,0l0,0l160,0l161,0l0,402q0,401 -5,401l-4,0l0,-1l0,0l4,0l3,0l0,-20q-1,-19 -1,-19l0,0l0,-11l0,-10l0,-16l0,-16l0,-15l0,-15l-1,0l0,0l-7,0q-8,0 -8,-1l0,0l8,0l8,0l0,-325q0,-324 -1,-338l0,-13l-153,0q-154,0 -154,4l0,4l0,0l0,0l-1,1l-1,1l0,0l0,0l0,-5l0,-6l-119,0l-119,0l0,-1l0,0l115,0q115,-1 115,-1z"/>
  <path id="svg_2" fill="#886503" fill-rule="evenodd" stroke="#886503" stroke-width="1px" d="m1137,680l0,0l0,0l1,0l0,15l0,15l0,0l-1,0l-7,0l-8,0l0,-14l0,-15l8,0q7,-1 7,-1z"/>
  <path id="svg_3" fill="#5B5B5C" fill-rule="evenodd" stroke="#5B5B5C" stroke-width="1px" d="m270,590l1,-85l0,1q1,2 1,12l0,10l2,0l3,0l0,-12l0,-11l0,0l1,0l0,85q0,84 -1,84l0,0l0,-5q0,-5 -3,-5q-2,0 -2,6l-1,5l0,0q0,1 -1,1l0,0l0,0q0,0 0,-86z"/>
  <path id="svg_4" fill="#8A6600" fill-rule="evenodd" stroke="#8A6600" stroke-width="1px" d="m994,696l0,-15l39,0l39,0l0,15l0,14l-39,0l-39,0l0,-14z"/>
  <path id="svg_5" fill="#888888" fill-rule="evenodd" stroke="#888888" stroke-width="1px" d="m589,1l1,0l0,0l0,1l119,0l119,0l0,6l0,5l0,0q0,1 -2,1q-2,1 -119,1l-118,1l0,-1l-1,0l0,0l0,-1l0,0l0,0l0,-4l0,-3l0,-3q0,-3 1,-3z"/>
  <path id="svg_6" fill="#491B06" fill-rule="evenodd" stroke="#491B06" stroke-width="1px" d="m405,382l0,0l149,0l149,0l0,0l0,0l-148,0l-148,0l0,1q-1,0 -1,63l0,62l1,2l1,2l0,0l0,0l2,0l3,0l0,0l1,0l0,-62q0,-61 1,-61l0,-1l66,0l66,0l0,5q1,4 0,4l0,0l0,-3q-1,-4 -65,-4l-64,-1l-1,1q-1,0 -1,61l0,61l1,0l0,0l17,0q16,0 17,-1q1,-1 1,-1l0,0l-1,14q-1,14 0,75q1,61 3,84q4,23 4,23q0,1 1,2l0,2l0,0q0,0 -47,1l-46,0l0,15l0,15l2,0q1,1 1,1l0,0l-8,0l-8,0l0,0l0,-1l5,0l6,0l0,-15l0,-15l-88,0l-87,0l0,-1l0,0l47,0l48,0l0,0q1,0 1,-1l0,0l1,0q0,1 59,1l59,0l0,-1l0,0l1,-14l0,-14l-2,0l-2,0l0,-1l0,0l1,0l2,0l0,-1l0,0l1,-45l0,-46l-7,0l-8,0l0,-1l0,0l1,0l0,-1l1,0l1,0l0,0l1,0l0,0l0,0l5,0l5,0l0,0l0,0l1,-2q0,-3 -1,-4l-1,0l1,0q0,0 0,-1l0,0l0,0q0,0 1,-99l0,-98l0,0z"/>
  <path id="svg_7" fill="#696D72" fill-rule="evenodd" stroke="#696D72" stroke-width="1px" d="m0,402l0,-402l410,0l410,0l0,0q0,0 -115,1l-115,0l-1,0q-1,0 -1,3l0,3l0,0q0,0 -1,-2q0,-2 -291,-2l-292,1l0,14q0,16 1,16q1,0 1,8q0,9 -1,10q-1,0 -1,2q0,2 -1,314l0,311l23,0q24,-1 24,-7l1,-7l0,0l1,0l0,7l0,8l-24,0l-24,0l0,0l0,0l0,16q0,15 0,15l0,0l0,15q0,14 0,14l0,1l0,1q0,0 -1,14l0,15l0,14q-1,14 -1,15l0,1l1,0l0,1l170,0l170,0l93,0l92,0l261,0l261,0l41,0l41,0l0,0l0,1l-566,0l-566,0l0,-401z"/>
  <path id="svg_8" fill="#E0E2E1" fill-rule="evenodd" stroke="#E0E2E1" stroke-width="1px" d="m895,255l1,1l2,0l3,0l2,-1l2,0l0,5l0,6l0,0l0,0l-3,1l-4,0l-2,0l-2,0l0,-1l0,-2l0,-4q0,-5 1,-5z"/>
  <path id="svg_9" fill="#4B1B07" fill-rule="evenodd" stroke="#4B1B07" stroke-width="1px" d="m1073,402l0,0l24,0q25,0 25,138l0,139l0,0q0,1 8,1l7,0l0,0q0,0 -7,1l-8,0l0,15l0,14l8,0l7,0l0,0q0,0 -31,1l-32,0l0,15q0,14 0,14l0,0l31,1l31,1l0,0l0,0l-50,0l-49,0l0,0l0,-1l17,0l18,0l0,-15l0,-15l-88,0l-87,0l0,-1l0,0l47,0l48,0l0,-4q0,-4 0,-14l0,-11l-88,0l-87,0l0,-1l0,0l127,0l127,0l0,-1l1,0l0,-9l0,-10l-1,0l0,0l0,0l0,-1l1,0l1,0l0,-23q0,-22 -1,-22q-1,0 -1,-2q0,-1 -1,-2l-1,0l0,-1q1,-1 1,-1q0,-1 1,-40l0,-38l0,0q1,-1 1,-2l0,0l0,-63q0,-63 1,-63zm-79,294l0,-15l39,0l39,0l0,15l0,14l-39,0l-39,0l0,-14z"/>
  <path id="svg_10" fill="#120A04" fill-rule="evenodd" stroke="#120A04" stroke-width="1px" d="m528,488l0,15l1,0l0,1l9,0l9,0l1,0q1,0 1,1l0,0l-28,0q-28,1 -31,0l-2,0l0,0l0,-1l16,0l16,0l0,-16q1,-16 4,-16q4,0 4,16z"/>
  <path id="svg_11" fill="#747A81" fill-rule="evenodd" stroke="#747A81" stroke-width="1px" d="m909,504l0,-3l0,1q1,1 1,2l0,0l0,0q0,1 1,2l0,1l0,0q1,0 1,1l0,0l0,0q0,0 0,1l1,0l3,3q2,4 9,6q7,2 7,3l0,0l0,0l0,1l2,0l2,0l0,0q0,0 -19,0q-19,0 -21,1l-1,1l0,0q-1,0 -1,-2l0,-1l1,0q1,-1 13,-1l13,0l-1,-1l-1,-1l0,0l-1,0l0,0l0,0l0,-1l0,0l-1,0l0,-1l0,0l-1,0l0,0l0,0l0,-1q0,0 -3,-3l-2,-2l0,-1q-1,0 -1,-1q0,-1 -1,-4z"/>
  <path id="svg_12" fill="#606161" fill-rule="evenodd" stroke="#606161" stroke-width="1px" d="m93,505l1,0l0,11l0,12l4,0l4,0l0,-11l0,-11l0,0l0,0l0,84q0,85 0,85l0,0l0,-5q0,-6 -4,-6q-4,0 -4,5l0,5l0,0l0,0l-1,0l0,1l0,0l-1,0l0,-7q0,-8 0,-86q0,-77 1,-77z"/>
  <path id="svg_13" fill="#C7D0D6" fill-rule="evenodd" stroke="#C7D0D6" stroke-width="1px" d="m878,245l0,-24l1,0q1,0 3,9q2,10 6,16q4,7 4,12l0,5l1,0l0,1l1,0l0,0l0,2l0,1l2,0l2,0l0,0l0,1l0,0l0,0l1,0l0,0l-1,1l-1,1l0,0l0,0l-9,0l-9,0l0,-1l-1,0l0,-24z"/>
  <path id="svg_14" fill="#4C5C2D" fill-rule="evenodd" stroke="#4C5C2D" stroke-width="1px" d="m1051,120l4,0l6,1q7,2 7,3q0,0 1,2l0,3l0,1q-1,0 -1,2q-2,1 -17,16l-16,14l-1,0q0,0 0,1l0,0l0,0q-1,1 -1,1l0,0l-1,0q0,0 -2,2l-2,2l0,0q0,0 -6,4q-4,4 -15,12l-11,8l0,0l0,0l-1,0l0,0l-2,0l-2,0l0,0l-1,0l0,0l0,0l0,-1l0,0l-1,0l0,-1l0,0l0,0l0,0l1,0l0,-2l0,-1l-1,-3q0,-3 1,-4q0,0 1,-2q1,-3 1,-4l0,0l0,0l0,0l1,0l0,0l0,-1l1,0l0,-1l0,-2l3,-10q2,-10 3,-10q1,-2 6,-2q5,0 8,1l3,0l0,-5q1,-6 16,-10q15,-4 15,-9q-1,-5 3,-5z"/>
  <path id="svg_15" fill="#826000" fill-rule="evenodd" stroke="#826000" stroke-width="1px" d="m319,772l0,-1l87,0l88,0l15,1q15,0 16,0l1,0l0,14q-1,15 0,15l2,0l0,1l0,0l-92,0l-93,0l0,0l0,-1l2,0l2,0l0,-14l-1,-14l0,0l0,-1l-14,0l-13,0l0,0z"/>
  <path id="svg_16" fill="#B9B9B9" fill-rule="evenodd" stroke="#B9B9B9" stroke-width="1px" d="m235,504l0,0l0,0q-1,0 -1,83l0,83l1,2l1,1l0,0l0,0l-1,2q-1,3 -2,3q-1,0 -1,1l0,1l0,0q-1,0 -12,0l-11,0l0,-1q-1,-1 -2,-3l-1,-3l0,0q0,0 1,-85l0,-84l1,-1q1,-1 14,-1q12,0 12,1q0,0 1,1z"/>
  <path id="svg_17" fill="#272727" fill-rule="evenodd" stroke="#272727" stroke-width="1px" d="m67,502l2,-1l-1,1q-2,2 -2,88l0,86l12,1q13,1 13,1l0,0l-3,0l-2,0l2,1q1,1 8,1l7,0l1,0q1,0 2,-1l1,0l-1,1q0,0 -21,1q-21,1 -21,9l0,8l-1,0l0,0l-5,1l-5,0l0,-1l-1,-1l0,-7q0,-8 -24,-9l-24,-1l0,0l0,0l24,0l23,0l0,-1l0,0l0,0q1,0 1,-7l0,-7l-1,0l0,0l0,-55q1,-54 1,-54q0,-1 0,-14q1,-14 6,-14l6,0l0,-12q0,-12 1,-13q0,-1 2,-1zm-2,176l1,-1l0,0q0,1 1,1q1,0 -1,1l-1,0l0,-1z"/>
  <path id="svg_18" fill="#9AA7B7" fill-rule="evenodd" stroke="#9AA7B7" stroke-width="1px" d="m307,665l0,-1l2,0q2,0 2,6l0,5l0,0l0,1l0,0l1,0l0,0l0,0l0,1l0,0l1,0l0,1l1,0l0,0l10,0l10,0l-8,1q-7,1 -15,1l-8,0l0,-1l0,-1l1,0l1,0l0,-1l1,0l0,0l0,-1l0,0l0,0l0,-6q0,-5 1,-5z"/>
  <path id="svg_19" fill="#808080" fill-rule="evenodd" stroke="#808080" stroke-width="1px" d="m327,152l0,-1l27,1q28,2 32,2l5,0l0,0q0,0 -23,0l-23,0l2,3q3,2 3,5q0,4 -1,4l0,0l0,0q-1,-1 -1,-1l0,0l0,-3q0,-2 -2,-3q0,-1 -4,-2q-3,-1 -5,1l-3,1l0,1l0,2l-1,1l0,1l0,0l-1,1l0,0l0,0l0,-1l0,0l-1,0l0,0l0,-2l1,-2l0,0l0,0l1,-2q1,-2 2,-2l1,0l0,-1l0,0l1,0l0,-1l-3,0q-3,0 -6,-1l-2,0l0,-1q0,0 1,0z"/>
  <path id="svg_20" fill="#808080" fill-rule="evenodd" stroke="#808080" stroke-width="1px" d="m308,151l19,0l0,1q-1,0 -1,0l0,1l-6,0l-6,1l3,3q3,3 2,7q-1,3 -1,3l0,0l0,0l-1,0l0,-1q1,-1 0,-5q-1,-3 -5,-4q-4,-1 -5,0q-1,1 -2,5l-1,3l-1,0l-1,0l0,0l0,0l0,-3l0,-2l1,-2q1,-2 1,-2l0,0l1,0l0,0l0,-1l1,0l0,0l0,-1l-22,0q-21,0 -28,0l-7,0l0,0l0,0l4,0l4,0l16,-2q16,0 35,-1z"/>
  <path id="svg_21" fill="#403C24" fill-rule="evenodd" stroke="#403C24" stroke-width="1px" d="m533,254l-3,-11l2,3q2,4 2,5l0,1l1,2l1,2l0,1l0,1l1,0l0,0l0,-1l1,0l0,0l0,-1l0,0q0,0 2,-4l1,-4l-1,5q0,5 0,11q0,5 0,8q2,3 2,5l0,2l0,0q0,0 -3,-5q-2,-6 -4,-1l-1,4l-1,1l-1,1l0,0l0,-1l0,0l0,0l0,-1l0,-1l0,0l0,0l0,-1l1,0l0,-2l1,-2l0,-1q0,-2 1,-4q1,-1 -2,-12z"/>
  <path id="svg_22" fill="#836100" fill-rule="evenodd" stroke="#836100" stroke-width="1px" d="m898,741l0,0l70,0l69,0l0,1l0,0l-5,0q-4,1 -5,4q-1,3 -1,14l0,11l2,0l1,0l0,1l0,0l-74,0l-74,0l0,0q0,0 -16,-1l-16,-1l0,-12l0,-12l0,0q1,0 1,-2l0,-2l24,0q24,0 24,-1z"/>
  <path id="svg_23" fill="#616162" fill-rule="evenodd" stroke="#616162" stroke-width="1px" d="m235,504l0,0l0,0q1,1 1,12l0,12l2,0l3,0l1,0q0,0 0,-1l0,0l0,69q0,69 0,69l0,0l0,-1q0,0 -1,0l0,0l-3,0l-2,0l0,4l0,5l0,0l0,0l-1,-1l-1,-2l0,-83q0,-83 1,-83z"/>
  <path id="svg_24" fill="#785901" fill-rule="evenodd" stroke="#785901" stroke-width="1px" d="m500,723l10,-14l0,0l0,0l1,0l0,1l59,0l59,0l0,0l0,1l-43,0l-44,0l0,15l0,15l1,0l0,0l0,0q0,1 -25,1l-24,1l0,-1q0,0 -1,0l0,0l-4,0l-4,0l0,0l0,-1l1,0q2,-1 4,-2q1,-1 10,-16z"/>
  <path id="svg_25" fill="#B18300" fill-rule="evenodd" stroke="#B18300" stroke-width="1px" d="m1032,742l5,0l49,0l50,0l1,0l1,0l0,10l0,11l0,4l0,4l-54,0l-55,0l-1,0l-2,0l0,-11q0,-11 1,-14q1,-3 5,-4z"/>
  <path id="svg_26" fill="#EBEB02" fill-rule="evenodd" stroke="#EBEB02" stroke-width="1px" d="m590,27l0,-1l119,0q119,0 119,1l0,0l1,1l0,0l0,5q-1,5 -4,7q-3,2 -25,4q-22,4 -78,4q-57,0 -84,-2q-27,-2 -37,-4l-9,-2l-1,0l0,0l0,-1l-1,0l0,0l0,-1l0,0l0,0l-1,-6l0,-5l0,0q1,0 1,0z"/>
  <path id="svg_27" fill="#CBD4DA" fill-rule="evenodd" stroke="#CBD4DA" stroke-width="1px" d="m922,244l0,7l1,0l0,0l6,0l6,0l0,0l0,1l1,0l0,0l0,0l0,0l1,0l0,0l1,1l0,0l0,1q0,0 -8,8l-8,8l0,0l0,0l-12,0l-13,0l0,0l0,0l1,-1l1,-1l0,0l-1,0l0,0l0,0l0,-1l0,0l4,0l3,-1l0,0l0,0l0,0l1,0l0,-8q2,-7 5,-15q3,-8 4,-9l0,-1l1,-2q1,-1 3,2q3,3 3,11z"/>
  <path id="svg_28" fill="#465528" fill-rule="evenodd" stroke="#465528" stroke-width="1px" d="m880,73l-1,-1l49,0q48,0 95,0l47,0l-39,1q-39,1 -39,1l0,0l-7,0l-7,0l3,5q3,4 7,15q4,11 4,18q2,6 2,28q0,22 -1,26l-1,3l0,3l0,2l0,0q0,1 -1,4q-1,2 -1,2q-1,1 -1,4l1,3l0,1l0,2l-1,0l0,0l0,0q-1,-1 -4,6q-3,7 -4,13l-1,6l0,3l0,4l-1,0l-1,0l-4,1l-3,0l-1,0l-1,-1l-1,0l-2,0l0,-3l0,-3l0,-2q0,-2 2,-18q2,-15 3,-35q1,-20 -2,-35q-3,-14 -7,-23q-4,-9 -4,-10l1,-1l3,-6q2,-7 3,-7l0,-1l0,0l1,0l0,0l0,0l0,-1l0,0l1,0l0,-1l0,0l1,0l0,0l0,0l0,-1l0,0l1,0l0,-1l-44,0l-44,0l0,0q0,0 -1,-1zm98,141l0,7l-6,0l-5,0l0,-7q0,-7 5,-7q6,0 6,7z"/>
  <path id="svg_29" fill="#E7EAEA" fill-rule="evenodd" stroke="#E7EAEA" stroke-width="1px" d="m932,238l1,0l0,-1l1,0l0,6l0,6l1,1l0,1l-6,0l-6,0l0,-2l1,-2l0,-5l0,-4l1,0l1,0l2,0l3,0l1,0z"/>
  <path id="svg_30" fill="#B6B6B6" fill-rule="evenodd" stroke="#B6B6B6" stroke-width="1px" d="m166,516l0,11l0,69q0,69 0,69l0,0l-1,6q-1,6 -1,7q0,0 -1,1l0,1l-1,0q0,0 -11,0l-11,0l0,-1q0,-1 -1,-1q-1,0 -1,-1l0,-1l0,-86q0,-85 -1,-85l0,0l1,-2q2,-1 14,-1q13,0 13,1q1,1 1,13z"/>
  <path id="svg_31" fill="#826000" fill-rule="evenodd" stroke="#826000" stroke-width="1px" d="m187,740l0,0l0,0l1,0l0,0l0,0l82,1l83,0l0,1l0,0l-17,0l-18,0l0,1q0,0 -1,14l0,14l1,0l1,0l0,1l0,0l-74,0l-74,0l-1,1l0,0l0,0q-1,-1 -15,-1q-14,-2 -15,-1l-1,0l0,-14l0,-14l23,-1q24,-2 24,-2q0,0 1,0z"/>
  <path id="svg_32" fill="#8B6700" fill-rule="evenodd" stroke="#8B6700" stroke-width="1px" d="m1137,710l0,0l1,0l0,0l0,16l0,16l-1,0l-1,0l0,0l0,0l-31,-1l-31,-1l0,0q0,0 0,-14l0,-15l32,0q31,-1 31,-1z"/>
  <path id="svg_33" fill="#6B6D70" fill-rule="evenodd" stroke="#6B6D70" stroke-width="1px" d="m1064,506l2,-3l0,3q-1,4 -6,8q-5,6 0,8q6,2 8,4q2,2 3,2l1,0l0,0q0,1 -1,2l0,0l-1,0q0,0 -3,-3q-3,-3 -66,-3l-63,-2l-1,0l-1,0l-2,0l-2,0l0,-1l0,0l58,-1q58,0 64,-4q6,-3 7,-4q1,0 1,0l0,-1l0,0q0,-1 0,-1l1,0l0,0q0,0 1,-4z"/>
  <path id="svg_34" fill="#B18300" fill-rule="evenodd" stroke="#B18300" stroke-width="1px" d="m4,742l0,-1l2,0l1,0l0,0l0,1l66,0q66,0 66,1l0,0l0,14l0,14l-68,0l-68,0l0,-15q1,-14 1,-14z"/>
  <path id="svg_35" fill="#9FABBB" fill-rule="evenodd" stroke="#9FABBB" stroke-width="1px" d="m236,668l0,-4l2,0l3,0l0,0q0,0 1,1l0,0l0,5q0,6 1,6l0,0l1,1q0,1 8,1l7,0l0,0l0,0l-1,1l-2,1l0,0l0,0l-12,0l-12,0l0,-1q0,-1 1,-1q1,0 2,-3l1,-2l0,-5z"/>
  <path id="svg_36" fill="#B8B9B9" fill-rule="evenodd" stroke="#B8B9B9" stroke-width="1px" d="m340,504l0,0l-1,86q-1,86 0,87q1,1 -1,2q-1,0 -1,-1q0,-1 -11,-1l-12,1l0,0l0,0l0,0l-1,0l0,-1l-1,0l0,0l0,-1l0,0l0,0l-1,0l0,0l0,-1l0,0l1,0q1,0 1,-82q-1,-82 -1,-85l-1,-3l1,-2q2,-1 14,-1q12,0 13,0q1,1 1,2z"/>
  <path id="svg_37" fill="#565656" fill-rule="evenodd" stroke="#565656" stroke-width="1px" d="m306,590l0,-86l0,0l0,0l0,12l0,11l1,0l0,1l2,0l2,0l0,-12l0,-11l1,3q0,3 1,85q0,82 -1,82l-1,0l0,-5q0,-6 -2,-6l-2,0l0,1q-1,0 -1,5l0,6l0,0l0,0l0,-86z"/>
  <path id="svg_38" fill="#B6B6B6" fill-rule="evenodd" stroke="#B6B6B6" stroke-width="1px" d="m270,503l1,2l0,85q-1,84 0,84l0,1l0,0q0,1 -1,1l0,0l0,0q0,0 -6,1l-5,1l-7,0q-8,0 -8,-1l-1,-1l0,0q-1,0 -1,-6l-1,-6l1,0q1,0 1,-68q0,-68 -1,-68l-1,0l0,-1q1,-1 1,-13q0,-11 1,-12q1,0 13,0q13,0 14,1z"/>
  <path id="svg_39" fill="#7C7C7C" fill-rule="evenodd" stroke="#7C7C7C" stroke-width="1px" d="m333,167l-2,-3l1,0l1,0l1,2q1,2 6,2q6,0 7,-1q1,-1 1,-1l0,-1l0,0q0,0 1,1l0,0l0,1q-1,1 -2,2l-1,1l0,0l0,0l-1,1l0,1l1,0l2,0l23,-1q23,-1 23,0l0,0l-4,0q-4,1 -7,1q-3,0 -52,1q-49,1 -63,-1l-13,0l-5,-1l-4,0l0,0l0,-1l22,1q23,1 31,1l8,0l0,-1l0,-1l-1,0q-1,0 -2,-3l-2,-2l1,0l1,0l0,1q0,0 1,1l0,1l1,0q1,0 4,0l4,0l1,0l1,0l0,-1l1,0l1,0l0,0l0,1q0,0 -1,1l-1,1l0,0l0,0l-1,0l0,0l0,1l-1,0l0,0l0,1l11,0l11,0l0,-1q0,-1 -3,-4z"/>
  <path id="svg_40" fill="#7A7248" fill-rule="evenodd" stroke="#7A7248" stroke-width="1px" d="m526,224l2,-1l21,0l21,0l0,0q0,1 -6,1l-6,0l-4,0q-4,0 -7,10q-3,10 -4,10q-1,0 -1,2l-1,2l-1,4q-2,4 -2,4l0,0l0,1l0,0l-1,0l0,1l0,0l-1,0l0,-1l0,-1l-1,-2l-1,-2l0,-1q0,-1 -2,-3l-1,-3l0,-1q-1,-1 -1,-1l0,0l0,-1q0,0 -3,-8q-3,-8 -1,-10z"/>
  <path id="svg_41" fill="#F2F2F2" fill-rule="evenodd" stroke="#F2F2F2" stroke-width="1px" d="m348,162l0,3l0,1q0,0 -1,1q-1,1 -7,1q-5,0 -6,-2l-1,-2l0,-1l1,-1l0,-2l0,-1l3,-1q2,-2 5,-1q4,1 4,2q2,1 2,3z"/>
  <path id="svg_42" fill="#B7B7B8" fill-rule="evenodd" stroke="#B7B7B8" stroke-width="1px" d="m200,504l0,1l0,0l0,0l-1,85l0,86l0,0l0,0l0,1l-1,0l0,0l0,1l-6,0l-6,0l-6,0q-7,0 -8,-3l-1,-2l0,0l1,0l0,-84q0,-84 -1,-84l0,0l1,-2q1,-1 14,-1q12,0 13,0q1,1 1,2z"/>
  <path id="svg_43" fill="#B28300" fill-rule="evenodd" stroke="#B28300" stroke-width="1px" d="m170,773l1,-1l74,0l74,0l13,0l14,0l0,1l0,0l1,14l0,14l-2,0l-2,0l-87,0l-86,0l0,-14l0,-14l0,0z"/>
  <path id="svg_44" fill="#B7B8B8" fill-rule="evenodd" stroke="#B7B8B8" stroke-width="1px" d="m306,504l0,0l0,0l0,0l0,86l0,86l0,0l0,0l0,0l0,0l0,1l0,0l-1,0l0,1l-1,0l-1,0l0,1l0,1l-1,0q0,0 -10,0l-11,0l0,0l0,0l-1,0l0,0l0,-1q0,-1 -2,-3l-1,-2l0,0q1,0 1,-84l0,-85l-1,0l0,0l1,-2q2,-1 14,-1q12,0 13,1q1,1 1,1z"/>
  <path id="svg_45" fill="#B28300" fill-rule="evenodd" stroke="#B28300" stroke-width="1px" d="m318,743l0,-1l18,0l17,0l8,0l8,0l58,0l58,0l4,0l4,0l0,0q0,0 1,1l0,0l0,14l0,14l-88,0l-87,0l-1,0l-1,0l0,-14q1,-14 1,-14z"/>
  <path id="svg_46" fill="#3E5470" fill-rule="evenodd" stroke="#3E5470" stroke-width="1px" d="m901,666l0,-1l3,2q4,2 6,3q2,0 2,1l0,0l-6,0q-5,-1 -8,-1l-4,0l0,-1l0,0l0,0q0,-1 4,-1l5,0l-1,-1q-1,0 -1,-1z"/>
  <path id="svg_47" fill="#C9D6B2" fill-rule="evenodd" stroke="#C9D6B2" stroke-width="1px" d="m908,140l0,1l1,0l0,0l4,15q3,14 3,39q0,25 0,29q-2,5 -2,7l0,2l1,0l0,0l0,1q-1,1 -4,9q-3,8 -5,15l0,8l-1,0l0,0l0,-6l0,-5l-2,0l-2,1l-3,0l-2,0l-1,-1q-1,0 -1,5l0,4l0,0l-1,0l0,-1l-1,0l0,-5q0,-5 -4,-12q-4,-6 -6,-16q-2,-9 -3,-9l-1,0l0,0q0,-1 0,-26l1,-26l0,0l0,-1l0,0l1,0l0,-2l0,-3l4,-11q4,-11 8,-14q3,-4 8,-3q4,1 6,2q2,2 2,3z"/>
  <path id="svg_48" fill="#8D844F" fill-rule="evenodd" stroke="#8D844F" stroke-width="1px" d="m554,224l4,0l0,0l0,0l8,2q8,0 13,13q5,12 5,13l0,2l1,1l1,1l0,2l0,3l1,0l0,0l-6,15q-7,15 -7,19q-1,3 -1,4l0,0l-5,0l-4,0l0,0l0,-1l-4,0q-5,0 -8,-1q-3,-1 -6,-9l-4,-9l0,-1q0,-2 -1,-2l0,0l0,-2q-1,-3 -1,-4q0,-1 0,-6q0,-6 0,-11l1,-5l1,-2q0,-2 1,-2q1,0 4,-10q3,-10 7,-10z"/>
  <path id="svg_49" fill="#826000" fill-rule="evenodd" stroke="#826000" stroke-width="1px" d="m106,680l1,-1l10,0l10,0l0,1q0,1 -9,1l-10,0l0,15l0,14l1,0l0,0l0,0q0,0 -49,1l-49,1l-1,0l0,0l0,0q-1,0 -4,-1l-2,0l0,0q0,0 0,-15l0,-16l0,0l0,0l0,0l0,0l24,1q24,1 24,9l0,7l1,1l0,1l5,0l5,-1l0,0l1,0l0,-8q0,-8 21,-9q21,-1 21,-1z"/>
  <path id="svg_50" fill="#888050" fill-rule="evenodd" stroke="#888050" stroke-width="1px" d="m595,240l6,-16l3,4q2,4 19,34q17,30 17,30l0,0l0,1l0,0l1,1l1,1l0,2l0,2l-20,0l-21,0l0,-1l-1,-1l0,-1q0,-2 -2,-8q-2,-5 -6,-18l-4,-13l0,0q0,0 7,-17z"/>
  <path id="svg_51" fill="#876400" fill-rule="evenodd" stroke="#876400" stroke-width="1px" d="m270,680l0,0l5,0l5,0l0,0l1,0l3,0l3,0l27,1q26,0 26,3q0,2 1,8l0,7l1,0q1,1 5,0q5,0 5,-9l1,-9l24,0l24,0l2,0l2,0l0,14l-1,14l0,0l0,1l-60,0l-60,0l0,-1q0,-1 1,-15l0,-13l-7,0q-8,-1 -8,-1z"/>
  <path id="svg_52" fill="#99A5B5" fill-rule="evenodd" stroke="#99A5B5" stroke-width="1px" d="m206,668l0,5l1,3q1,2 2,3l0,1l-15,0l-14,0l0,0l0,0l3,-1l3,-1l0,0l0,0l6,0l6,0l0,-1l0,0l1,0l0,-1l0,0l0,0l0,0q1,0 1,-6q0,-6 3,-6q3,0 3,4z"/>
  <path id="svg_53" fill="#403410" fill-rule="evenodd" stroke="#403410" stroke-width="1px" d="m638,704l0,-1l12,3q11,2 15,3l4,1l1,0l0,0l0,0l0,0l-20,1l-21,0l0,-1l0,0l5,0l5,0l0,-2q-1,-3 -1,-4z"/>
  <path id="svg_54" fill="#B9B9B9" fill-rule="evenodd" stroke="#B9B9B9" stroke-width="1px" d="m94,504l0,1l-1,0q-1,0 -1,85q0,84 1,84l1,0l0,1l0,1l-1,0q-1,0 -1,1l0,1l-1,0l0,0l0,0q0,0 -11,-1q-12,0 -12,1l0,1l-2,0l-1,0l0,-1l1,-1l0,-87l0,-87l1,0q1,-1 1,-1l1,-1l11,0q11,1 12,2q2,1 2,1z"/>
  <path id="svg_55" fill="#5F5F60" fill-rule="evenodd" stroke="#5F5F60" stroke-width="1px" d="m207,504l0,0l0,84q-1,85 -1,85l0,0l0,-5q0,-4 -3,-4q-3,0 -3,6q0,6 -1,6l0,0l0,-86l1,-85l0,0l0,0l0,11l0,12l3,0l3,0l0,-12q0,-12 1,-12z"/>
  <path id="svg_56" fill="#7A7246" fill-rule="evenodd" stroke="#7A7246" stroke-width="1px" d="m588,257l0,0l4,13q4,13 6,18q2,6 2,8l0,1l1,1l0,1l-11,0l-11,1l0,0l-1,0l0,6l0,5l0,1l0,1l-1,-7q-1,-6 -2,-6l-2,-1l0,0q0,-1 1,-4q0,-4 7,-19l6,-15l0,-2q1,-2 1,-2z"/>
  <path id="svg_57" fill="#D6E0EA" fill-rule="evenodd" stroke="#D6E0EA" stroke-width="1px" d="m880,74l1,0l44,0l44,0l0,1l-1,0l0,0l0,1l0,0l0,0l-1,0l0,0l0,1l-1,0l0,0l0,1l0,0l0,0l-1,0l0,0l0,1q-1,0 -3,7l-3,6l-1,0q-2,0 -6,0q-3,0 -5,2q-3,2 -5,8l-4,6l0,0l0,0l0,1l0,0l-1,0l0,1l0,0l-1,0l0,0l0,0l0,0q0,-1 -2,-2q-1,-2 -5,-2q-4,0 -7,3q-4,4 -8,16l-4,12l0,1l0,2l-1,0l0,0l0,1l0,0l0,0l-1,0l0,-1q0,-1 -2,-3q-2,-1 -6,-2q-5,-1 -8,3q-4,3 -8,14l-4,11l0,3l0,2l-1,0l0,0l0,1l0,0l0,0l-1,0l0,-47q0,-47 2,-48z"/>
  <path id="svg_58" fill="#595A5A" fill-rule="evenodd" stroke="#595A5A" stroke-width="1px" d="m130,590l0,-86l0,0q0,0 1,12l1,11l0,0l0,1l2,0l2,0l0,-11q0,-11 1,-11l0,-1l0,0q1,0 1,85l0,86l0,0q0,0 -1,-6q-1,-6 -3,-6l-2,1l-1,5l0,6l0,0l-1,0l0,-86z"/>
  <path id="svg_59" fill="#826000" fill-rule="evenodd" stroke="#826000" stroke-width="1px" d="m543,741l0,0l86,0l86,0l0,1l0,0l-21,0l-21,0l0,1q-1,0 -1,14l0,14l1,0l0,0l0,1l0,0l-73,0l-74,0l0,0q0,0 -1,0l0,1l-1,0q-1,-1 -16,-1l-14,-1l0,-13q0,-14 -1,-15l0,-1l25,0q25,0 25,-1z"/>
  <path id="svg_60" fill="#585858" fill-rule="evenodd" stroke="#585858" stroke-width="1px" d="m171,516l0,-11l0,0q1,0 1,84l0,84l-1,0l0,0l0,-4q-1,-4 -1,-4l0,-1l-2,0q-2,0 -2,1l0,0l0,0q0,0 0,-69l0,-69l0,0l0,1l2,0l2,0l0,-1l0,0l1,-11z"/>
  <path id="svg_61" fill="#836100" fill-rule="evenodd" stroke="#836100" stroke-width="1px" d="m814,710l3,0l40,0l40,0l0,0l0,1l0,15l1,15l0,0l0,0l0,0q0,1 -24,1l-24,0l0,2q0,2 -1,2l0,0l0,-2q-1,-1 -67,-2l-67,0l0,0l0,-1l1,0q1,-1 1,-1l1,0l0,-14q0,-13 -1,-14l0,-1l47,0q48,-1 50,-1z"/>
  <path id="svg_62" fill="#B48500" fill-rule="evenodd" stroke="#B48500" stroke-width="1px" d="m188,712l1,-1l87,0l88,0l0,15l0,15l-6,0l-5,0l-83,0l-82,-1l0,0l0,0l-1,0l0,0l0,-14q1,-14 1,-14z"/>
  <path id="svg_63" fill="#816001" fill-rule="evenodd" stroke="#816001" stroke-width="1px" d="m748,680l4,0l32,0l33,0l0,0l0,1l0,15l0,14l-3,0q-2,0 -46,0q-43,0 -46,1l-4,1l0,0q0,-1 -1,-1l0,0l-23,0l-22,-1l0,0l0,0l1,0l1,0l10,-2q9,-2 19,-8q9,-6 20,-12q10,-6 15,-8q5,0 10,0z"/>
  <path id="svg_64" fill="#898988" fill-rule="evenodd" stroke="#898988" stroke-width="1px" d="m829,12l1,-1l0,0l0,0l0,2q0,2 4,2q3,1 4,1q0,1 0,4q0,4 -4,6l-5,2l0,0l-1,-1l0,0q0,-1 -119,-1l-119,0l0,1q0,0 -1,0l0,0l-1,0q-1,-1 -4,-1l-3,0l-1,-1l-1,-1l0,0l-1,0l0,-3l0,-3l1,0l0,0l0,-1l1,0l0,0l0,-1l0,0l0,0l1,0l0,0l3,-1q3,-1 4,-1l0,0l0,0l0,0l0,1l0,0l1,0l0,1l118,-1q117,0 119,-1q2,0 2,-1l0,0l0,0l0,0l1,-1z"/>
  <path id="svg_65" fill="#6E873A" fill-rule="evenodd" stroke="#6E873A" stroke-width="1px" d="m958,92l1,0l-1,1q0,1 4,10q4,9 7,23q3,15 2,35q-1,20 -3,35q-2,16 -2,18l0,2l0,0q0,0 -1,-1q-1,-1 -2,1q-1,3 -2,10l-1,7l0,0q0,0 -1,2l0,2l-2,0l-2,0l-3,0l-4,-1l0,0l0,0l-1,-7q-1,-7 -2,-7l-2,-1l0,1q-1,0 -1,0l0,0l0,1l0,1l0,0l0,0l0,-2q0,-2 2,-13q2,-11 3,-31q1,-20 -1,-32q-2,-11 -6,-24l-4,-12l0,0l0,0l1,0l0,0l0,-1l1,0l0,0l0,-1l0,0l0,0l4,-6q2,-6 5,-8q2,-2 5,-2q4,0 6,0zm0,138l0,5l-4,0l-5,0l0,-5q0,-6 5,-6q4,0 4,6z"/>
  <path id="svg_66" fill="#D3DADD" fill-rule="evenodd" stroke="#D3DADD" stroke-width="1px" d="m966,216l0,0l0,3l0,3l2,0l1,0l1,1l1,0l0,0q0,1 -3,3l-4,4l-1,0l-1,0l0,1l0,0l-1,1l-1,1l0,0l0,0l1,-7q1,-7 2,-10q1,-2 2,-1q1,1 1,1z"/>
  <path id="svg_67" fill="#EBEBEB" fill-rule="evenodd" stroke="#EBEBEB" stroke-width="1px" d="m246,154l3,0l0,0l0,0l7,0q7,0 28,0l22,0l0,1l0,0l-1,0l0,1l0,0l-1,0l0,0q0,0 -1,2l-1,2l0,2l0,3l0,0l0,0l2,2q1,3 2,3l1,0l0,1l0,1l-8,0q-8,0 -31,-1l-22,-1l0,1l0,0l-2,0q-3,-1 -16,-3l-12,-2l-1,0l-1,0l-1,-1l-1,-1l0,0l0,0l0,-2l0,-1l0,0l0,-1l1,0l1,0l2,-1l1,-1l13,-2q14,-2 16,-2z"/>
  <path id="svg_68" fill="#DADADA" fill-rule="evenodd" stroke="#DADADA" stroke-width="1px" d="m318,193q-256,0 -254,-1q3,0 257,-1q254,0 254,1q0,1 -257,1z"/>
  <path id="svg_69" fill="#736B41" fill-rule="evenodd" stroke="#736B41" stroke-width="1px" d="m541,276l0,0l0,2q1,1 1,1l0,0l4,9q3,8 6,9q3,1 8,1l4,0l0,1l0,0l-10,0q-11,1 -12,7l0,7l-1,0l0,-1l0,0l0,0l0,-6l-1,-6l0,0l0,0l-6,-1l-7,0l0,0l0,-1l-1,0l-1,0l0,-1l1,-1l0,-1l0,-1l1,-2q1,-1 3,-8l2,-6l0,0l0,0l0,1l0,0l0,-1q0,-1 0,-2l0,0l0,0l0,0l0,-1l1,0l2,-3q2,-4 4,0q1,4 2,4z"/>
  <path id="svg_70" fill="#10243D" fill-rule="evenodd" stroke="#10243D" stroke-width="1px" d="m894,521l0,0l0,1q0,2 1,2l0,0l14,20q13,21 18,32q5,11 5,22q0,11 -1,14l0,2l0,3l1,3l2,8q4,7 11,13q8,5 17,11q9,6 10,6q0,0 50,1l49,0l0,1l0,0l-49,0q-50,0 -53,3q-3,3 -12,7q-9,2 -27,2l-18,-1l0,0q0,-1 -2,-1q-2,-1 -5,-2l-3,-2l0,0q0,-1 -1,-1l0,0l-1,0l0,-1l0,0l0,0l-1,0q0,0 -3,-6q-4,-5 -7,-24q-3,-20 -7,-31q-2,-11 -8,-19q-4,-8 -20,-22q-16,-15 -30,-35q-16,-20 -22,-33l-8,-13l0,0l0,-1l0,0l0,0l0,0l0,0l1,0l0,0l0,-1l1,0l0,-1l0,-1l1,0l0,-1l1,0q1,-2 14,-4q12,-2 19,-1q7,1 17,6q10,6 20,16q11,11 18,19q7,8 8,9z"/>
  <path id="svg_71" fill="#E6E9EA" fill-rule="evenodd" stroke="#E6E9EA" stroke-width="1px" d="m958,230l0,5l-4,0l-5,0l0,-5q0,-6 5,-6q4,0 4,6z"/>
  <path id="svg_72" fill="#0C0C0C" fill-rule="evenodd" stroke="#0C0C0C" stroke-width="1px" d="m51,196l-1,0l0,0l0,0l0,-1l0,0l0,-5q0,-6 3,-8q3,-2 263,-1q259,1 262,2q2,2 4,4q1,3 2,3q2,0 -1,3q-3,2 -7,5q-3,2 -10,4q-7,2 -256,1q-249,-1 -253,-3q-4,-2 -5,-2q-1,-2 -1,-2zm267,-3q-256,0 -254,-1q3,0 257,-1q254,0 254,1q0,1 -257,1z"/>
  <path id="svg_73" fill="#7C5C00" fill-rule="evenodd" stroke="#7C5C00" stroke-width="1px" d="m849,770l0,0l16,1q16,1 16,1l0,0l0,0q-1,1 -1,15l0,14l85,0l85,0l0,1l0,0l-261,0l-261,0l0,0l0,-1l86,0l86,0l0,-14l0,-14l-1,0l0,-1l-13,0l-13,0l0,0l0,-1l88,0q88,-1 88,-1z"/>
  <path id="svg_74" fill="#D5DEE4" fill-rule="evenodd" stroke="#D5DEE4" stroke-width="1px" d="m943,222l0,-1l2,1q1,0 2,7l1,7l0,0l0,0l4,1l3,0l0,0q0,1 -1,1q-1,0 -1,1q-1,1 -7,7l-8,7l0,0l0,0l0,0l-1,-1l0,0l-1,0l0,0l0,0l0,-9q0,-9 3,-14l3,-5l0,-1l0,-1l0,0q0,0 1,0z"/>
  <path id="svg_75" fill="#805F02" fill-rule="evenodd" stroke="#805F02" stroke-width="1px" d="m1138,767l0,-4l0,0q0,0 1,19l0,20l-3,0l-4,0l-41,0l-41,0l0,0l0,-1l2,0l3,0l0,-14l-1,-14l0,0l0,-1l-12,0l-13,0l0,0l0,-1l55,0l54,0l0,-4z"/>
  <path id="svg_76" fill="#746D44" fill-rule="evenodd" stroke="#746D44" stroke-width="1px" d="m570,223l0,0l16,0q15,1 15,1l0,0l-6,16q-7,17 -7,17l0,0l0,0q0,0 -1,2l0,2l0,0l-1,0l0,-3l0,-2l-1,-1l-1,-1l0,-2q0,-1 -5,-13q-5,-13 -13,-13l-8,-2l0,0l0,0l6,0q6,0 6,-1z"/>
  <path id="svg_77" fill="#F0F1F1" fill-rule="evenodd" stroke="#F0F1F1" stroke-width="1px" d="m600,114l1,45l0,7l0,6l0,6q-1,5 -1,8q0,2 -3,7q-3,5 -9,8q-6,3 -269,3q-263,0 -267,-2q-5,-2 -9,-8q-3,-5 -4,-64q-1,-59 2,-64q3,-6 9,-10q6,-4 268,-5q261,-1 268,3q7,4 10,9q4,5 4,51zm-292,37l19,0l27,1q28,2 32,2l5,0l17,3q17,3 19,4q1,1 1,2q0,1 -11,4q-11,3 -15,3q-4,0 -6,1l-2,0l-4,0q-4,1 -7,1q-3,0 -52,1q-49,1 -63,-1l-13,0l-5,-1l-4,0l-2,0q-3,-1 -16,-3l-12,-2l-1,0l-1,0l-1,-1l-1,-1l0,0l0,0l0,-2l0,-1l0,0l0,-1l1,0l1,0l2,-1l1,-1l13,-2q14,-2 16,-2l3,0l4,0l4,0l16,-2q16,0 35,-1zm-257,45l-1,0l0,0l0,0l0,-1l0,0l0,-5q0,-6 3,-8q3,-2 263,-1q259,1 262,2q2,2 4,4q1,3 2,3q2,0 -1,3q-3,2 -7,5q-3,2 -10,4q-7,2 -256,1q-249,-1 -253,-3q-4,-2 -5,-2q-1,-2 -1,-2z"/>
  <path id="svg_78" fill="#A0ADBD" fill-rule="evenodd" stroke="#A0ADBD" stroke-width="1px" d="m277,669l0,5l1,2q2,2 2,3l0,1l-5,0l-5,0l-7,0l-7,0l0,0l0,0l2,-1l1,-1l0,0l0,0l5,-1q6,-1 6,-1l0,0l0,0q1,0 1,-1l0,0l1,-5q0,-6 2,-6q3,0 3,5z"/>
  <path id="svg_79" fill="#9AA6B5" fill-rule="evenodd" stroke="#9AA6B5" stroke-width="1px" d="m168,664l2,0l0,1q0,0 1,4l0,4l1,2q1,3 8,3l6,0l0,0l0,0l-3,1l-3,1l0,0l0,0l-8,0l-9,0l0,-1q1,-1 1,-1q0,-1 1,-7l1,-6l0,0q0,-1 2,-1z"/>
  <path id="svg_80" fill="#0D0E0F" fill-rule="evenodd" stroke="#0D0E0F" stroke-width="1px" d="m664,159l0,5l0,2l0,3l0,0l0,1l4,0l4,0l4,0l4,0l-8,1q-9,1 -10,3q-2,2 -4,5q-3,3 -8,3q-5,0 -20,-4q-16,-6 -22,-6l-6,0l0,0l0,0l-1,0l0,0l0,-6l0,-7l0,0l1,0l0,0l0,1l0,0l0,0l1,0l0,0l9,3q10,3 11,3l1,0l2,1l1,1l1,0l1,0l1,-1l0,0l2,1q2,2 9,2l7,0l1,-1l1,0l0,-1l0,-2l1,-2l1,-1l-1,-4q-1,-4 -5,-7q-4,-4 -4,-10q0,-7 3,-10q3,-2 5,-4q3,0 8,0q4,0 7,3q3,2 5,5q2,2 1,6q-1,5 -3,8q-4,4 -4,9z"/>
  <path id="svg_81" fill="#A45609" fill-rule="evenodd" stroke="#A45609" stroke-width="1px" d="m527,370l0,0l1,1q1,1 33,0q32,-1 33,-1l0,0l0,0l0,0l0,1l0,0l1,0l0,1l64,0l64,0l0,1l-1,0l0,0l0,1l-1,0l-1,0l0,1l0,0l-1,0l0,1l-1,0l-1,0l-6,3q-6,3 -6,60l0,57l-1,0l0,0l0,-56q0,-57 -1,-58l0,0l0,0l0,0l-149,0l-149,0l0,0l0,0l-1,0q0,0 -4,-2l-3,-2l-1,-1l-1,-1l0,0l-1,0l0,0l0,0l-1,-1l-1,-1l-1,0l-1,0l0,-1l0,-1l68,0l68,0l0,-1l0,0l1,-1z"/>
  <path id="svg_82" fill="#E8E8E8" fill-rule="evenodd" stroke="#E8E8E8" stroke-width="1px" d="m347,157l-2,-3l23,0q23,0 23,0l0,0l17,3q17,3 19,4q1,1 1,2q0,1 -11,4q-11,3 -15,3q-4,0 -6,1l-2,0l0,0q0,-1 -23,0l-23,1l-2,0l-1,0l0,-1l1,-1l0,0l0,0l1,-1q1,-1 2,-2l0,-1l0,0q1,0 1,-4q0,-3 -3,-5z"/>
  <path id="svg_83" fill="#B48500" fill-rule="evenodd" stroke="#B48500" stroke-width="1px" d="m897,726l0,-15l87,0l88,0l0,15l0,15l-18,0l-17,0l-69,0l-70,0l0,0l0,0l-1,-15z"/>
  <path id="svg_84" fill="#F1F1F1" fill-rule="evenodd" stroke="#F1F1F1" stroke-width="1px" d="m317,157l-3,-3l6,-1l6,0l2,0q3,1 6,1l3,0l0,1l-1,0l0,0l0,1l-1,0q-1,0 -2,2l-1,2l0,0l0,0l-1,2l0,2l0,0q0,0 1,1l0,0l2,3q2,2 2,3l0,1l-11,0l-11,0l0,-1l0,0l1,0l0,-1l0,0l1,0l0,0l0,0l1,-1q1,-1 1,-1l0,-1l0,0q0,0 1,-3q1,-4 -2,-7z"/>
  <path id="svg_85" fill="#4E1B06" fill-rule="evenodd" stroke="#4E1B06" stroke-width="1px" d="m1068,610l1,0l1,0q1,1 1,2q0,2 1,2q1,0 1,22l0,23l-1,0l-1,0l-49,0q-50,-1 -50,-1q-1,0 -10,-6q-9,-6 -17,-11q-7,-6 -11,-13l-2,-8l-1,-3l0,-3l0,0l1,0l0,0l0,0l66,0q65,0 68,-2q2,-2 2,-2z"/>
  <path id="svg_86" fill="#40638F" fill-rule="evenodd" stroke="#40638F" stroke-width="1px" d="m479,505l9,0l0,1q0,1 -3,2q-3,0 -3,1q0,1 -2,2q-3,1 -9,1l-6,0l-1,0l-1,0l-1,-1l-1,-1l0,0l0,0l0,0l1,0l0,-2q1,-2 4,-2q4,0 13,-1z"/>
  <path id="svg_87" fill="#F4F5F6" fill-rule="evenodd" stroke="#F4F5F6" stroke-width="1px" d="m678,169l-6,1l0,0l0,0l-4,0l-4,0l0,-1l0,0l0,-3l0,-2l0,-5q0,-5 4,-9q2,-3 3,-8q1,-4 -1,-6q-2,-3 -5,-5q-3,-3 -7,-3q-5,0 -8,0q-2,2 -5,4q-3,3 -3,10q0,6 4,10q4,3 5,7l1,4l-1,1l-1,2l0,2l0,1l-1,0l-1,1l-7,0q-7,0 -9,-2l-2,-1l0,-1l0,0l-1,-1l-1,-1l1,-25q1,-25 2,-26q1,-1 27,-1q25,0 27,1q1,2 1,27q0,26 -2,27q-1,1 -6,2z"/>
  <path id="svg_88" fill="#D7E1ED" fill-rule="evenodd" stroke="#D7E1ED" stroke-width="1px" d="m981,79l-3,-5l7,0l7,0l39,0l39,0l0,28l0,27l0,0l-1,0l0,-3q-1,-2 -1,-2q0,-1 -7,-3l-6,-1l-4,0q-4,0 -3,5q0,5 -15,9q-15,4 -16,10l0,5l-3,0q-3,-1 -8,-1q-5,0 -6,2q-1,0 -3,10l-3,10l0,2l0,1l-1,0l0,1l0,0l-1,0l0,0l0,0l0,-2l0,-3l1,-3q1,-4 1,-26q0,-22 -2,-28q0,-7 -4,-18q-4,-11 -7,-15z"/>
  <path id="svg_89" fill="#A8B5C4" fill-rule="evenodd" stroke="#A8B5C4" stroke-width="1px" d="m138,676l0,0l0,1q0,1 1,1q1,0 1,1l0,1l-5,0l-5,0l0,0l0,-1l-1,0q0,-1 1,-2l1,-1l0,-6l1,-5l2,-1q2,0 3,6q1,6 1,6z"/>
  <path id="svg_90" fill="#C96400" fill-rule="evenodd" stroke="#C96400" stroke-width="1px" d="m417,390l1,-1l64,1q64,0 65,4l0,3l0,53l0,54l-9,0l-9,0l0,-1l-1,0l0,-15q0,-16 -4,-16q-3,0 -4,16l0,16l-16,0l-16,0l0,1l0,0l-9,0q-9,1 -13,1q-3,0 -4,2l0,2l-1,0l0,0l-1,0q-1,0 -2,-1q-2,0 -2,-1l0,-1l-1,1l0,1l-1,0l-2,1l0,0l0,0l0,0q0,0 -1,1q-1,1 -17,1l-17,0l0,0l-1,0l0,-61q0,-61 1,-61z"/>
  <path id="svg_91" fill="#F3F3F3" fill-rule="evenodd" stroke="#F3F3F3" stroke-width="1px" d="m317,166l0,1l-1,0l0,1l-1,0l-1,0l-4,0q-3,0 -4,0l-1,0l0,-1q-1,-1 -1,-1l0,-1l1,-3q1,-4 2,-5q1,-1 5,0q4,1 5,4q1,4 0,5z"/>
  <path id="svg_92" fill="#B8B8B8" fill-rule="evenodd" stroke="#B8B8B8" stroke-width="1px" d="m130,504l0,0l0,86l0,86l1,0l0,0l-1,1q-1,1 -1,2l1,0l0,1l0,0l-1,0q-1,0 -1,-1l-1,0l-10,0l-10,0l-1,0q-1,1 -2,1l-1,0l0,0l1,-1l0,0q0,-1 -1,-2l-1,-2l0,0q0,0 0,-85l0,-84l0,0l0,0l2,-2q2,-2 14,-2q11,0 11,1q1,0 1,1z"/>
  <path id="svg_93" fill="#D5DEDF" fill-rule="evenodd" stroke="#D5DEDF" stroke-width="1px" d="m1034,162l1,0l0,1q-1,1 -25,24l-24,23l-1,0l0,0l0,1l-1,0l0,0l0,1l0,0l0,0l-1,0l0,0l-1,1l-1,0l0,1l-1,1l0,0l0,0l1,-6q1,-6 4,-13q3,-7 4,-6l0,0l0,0l0,0l0,1l1,0l0,0l0,1l0,0l0,0l1,0l0,0l2,0l2,0l0,0l1,0l0,0l0,0l11,-8q11,-8 15,-12q6,-4 6,-4l0,0l2,-3q3,-3 4,-3z"/>
  <path id="svg_94" fill="#B28300" fill-rule="evenodd" stroke="#B28300" stroke-width="1px" d="m881,772l0,0l74,0l74,0l13,0l12,0l0,1l0,0l1,14l0,14l-3,0l-2,0l-85,0l-85,0l0,-14q0,-14 1,-15z"/>
  <path id="svg_95" fill="#B25800" fill-rule="evenodd" stroke="#B25800" stroke-width="1px" d="m407,383l0,-1l148,0l148,0l0,0q1,1 1,58l0,56l0,1q0,1 -3,1l-3,0l0,0q0,-1 -1,-55q-1,-54 -66,-54l-66,1l0,0l-1,0l0,57l0,57l-2,0q-1,0 -7,1l-6,0l0,0q0,-1 -1,-1l-1,0l0,-54l0,-53l0,0q1,0 0,-4l0,-5l-66,0l-66,0l0,1q-1,0 -1,61l0,62l-1,0l0,0l-3,0l-2,0l0,0l0,0l-1,-2l-1,-2l0,-62q0,-63 1,-63z"/>
  <path id="svg_96" fill="#C3D6ED" fill-rule="evenodd" stroke="#C3D6ED" stroke-width="1px" d="m4,18l0,-14l292,-1q291,0 291,2q1,2 1,2l0,0l0,3l0,4l0,0q-1,0 -4,1l-3,1l0,0l-1,0l0,0l0,0l0,1l0,0l-1,0l0,1l0,0l-1,0l0,3l0,3l1,0l0,0l1,1l1,1l3,0q3,0 4,1l1,0l0,5l1,6l0,0l0,0l0,1l0,0l1,0l0,1l0,0l1,0l9,2q10,2 37,4q27,2 84,2q56,0 78,-4q22,-2 25,-4q3,-2 4,-7l0,-5l5,-2q4,-2 4,-6q0,-3 0,-4q-1,0 -4,-1q-4,0 -4,-2l0,-2l0,-4q0,-4 154,-4l153,0l0,13q1,14 1,338l0,325l-8,0l-8,0l0,-139q0,-138 -25,-138l-24,0l0,0q-1,0 -1,63l0,63l-1,0q-1,0 -3,-2q-2,-2 -8,-4q-5,-2 -2,-5q4,-3 4,-5l0,-1l0,0q0,-1 0,-1l1,0l1,0q1,0 2,-4l0,-3l0,0q0,-1 0,-6q0,-5 -2,-10q-2,-5 -7,-8q-5,-3 -67,-4q-63,-1 -68,2q-5,3 -8,7q-4,5 -4,12l0,8l0,2q-1,1 0,1l1,0l0,0q1,0 1,1l0,0l0,0q0,0 1,0l0,1l-1,0l-1,1l2,2q3,3 3,3l0,1l0,0l0,0l1,0l0,0l0,1l1,0l0,0l0,1l0,0l0,0l1,0l0,0l1,1l1,1l-13,0q-12,0 -13,1l-1,0l0,0q-1,-1 -8,-9q-7,-8 -18,-19q-10,-10 -20,-16q-10,-5 -17,-6q-7,-1 -19,1q-13,2 -14,4l-1,0l0,1l-1,0l0,1l0,1l-1,0l0,1l0,0l-1,0l0,0l0,0l0,0q-1,0 -4,2q-4,2 -25,8q-21,8 -41,8l-19,0l0,-1l0,-1l0,-57q0,-57 6,-60l6,-3l1,0l1,0l0,-1l1,0l0,0l0,-1l1,0l1,0l0,-1l0,0l1,0l0,-1l-64,0l-64,0l0,-1l-1,0l0,0l0,-1l0,0l0,0l0,0l0,0l0,-1l0,0l1,-1l1,-1l0,-1q0,-1 3,-6q2,-4 8,-18q5,-13 -11,-22l-17,-8l0,-1l-1,0l0,0l0,0l0,-5l0,-6l1,0l0,0l11,-1l11,0l21,0l20,0l0,-2l0,-2l-1,-1l-1,-1l0,0l0,-1l0,0q0,0 -17,-30q-17,-30 -19,-34l-3,-4l0,0q0,0 -15,-1l-16,0l-21,0l-21,0l-4,0l-5,1l0,0q-1,0 -20,35l-19,35l-1,1l-1,1l0,2l0,1l24,0l25,0l7,0l6,1l0,0l0,0l1,6l0,6l-1,0l0,0l-16,9q-16,8 -14,13q2,4 8,16q6,13 6,14l0,2l1,1l1,1l0,0l0,0l0,1l0,0l1,1l0,0l0,0l-1,1l0,0l0,1l-68,0l-68,0l0,1l0,1l1,0l1,0l1,1l1,1l0,0l0,0l1,0l0,0l1,1l1,1l3,2q4,2 4,2l1,0l0,98q-1,99 -1,99l0,0l0,0q0,0 -1,1l0,0l0,0q-1,0 -5,2l-4,2l0,1l0,0l-1,1l0,0l-1,0l-1,0l0,1l-1,0l0,0l0,1l8,0l7,0l0,46l-1,45l0,0l0,1l-2,0l-1,0l-23,0l-24,0l0,-1l0,0l0,-3q0,-3 0,-62q0,-59 -2,-72q0,-13 -6,-14q-5,0 -6,-12l0,-12l0,0q0,-1 -1,-2q-1,0 -13,0q-12,0 -14,1l-1,2l0,11l0,12l-2,0l-2,0l0,-1l-1,0l0,-11l0,-12l0,0q0,0 -1,-1q-1,-1 -13,-1q-12,0 -14,1l-1,2l0,11l0,12l-3,0l-2,0l0,-10q0,-10 -1,-12l0,-1l-1,-2q-1,-1 -14,-1q-12,0 -13,0q-1,1 -1,13l0,12l0,0l0,0l-1,1l0,0l-3,0l-2,0l0,-12q0,-11 -1,-12l0,0l0,0q-1,-1 -1,-1q0,-1 -12,-1q-13,0 -14,1l-1,1l0,0q-1,0 -1,12l0,12l-3,0l-3,0l0,-12l0,-11l0,-1q0,-1 -1,-2q-1,0 -13,0q-13,0 -14,1l-1,2l0,11l-1,11l0,0l0,1l-2,0l-2,0l0,-1l0,0l0,-11q0,-12 -1,-13q0,-1 -13,-1q-12,0 -14,1l-1,2l0,1q-1,0 -1,11l0,11l-2,0l-2,0l0,-1l0,0l-1,-11q-1,-12 -1,-12l0,0l0,0q0,-1 -1,-1q0,-1 -11,-1q-12,0 -14,2l-2,2l0,11l0,11l-4,0l-4,0l0,-12l0,-11l0,-1q0,0 -2,-1q-1,-1 -12,-2l-11,0l-1,1q-2,0 -2,0l0,1l-1,1q-1,0 -1,12l0,12l-6,0q-5,0 -6,14q0,13 0,14q0,0 -1,54l0,55l0,7l0,7l-24,0l-24,0l0,-311q1,-312 1,-314q0,-2 1,-2q1,-1 1,-10q0,-8 -1,-8q-1,0 -1,-16zm596,96l1,45l0,0l1,0l0,0l0,1l0,0l0,0l1,0l0,0l9,3q10,3 11,3l1,0l2,1l1,1l1,0l1,0l1,-1l0,0l0,-1l0,0l-1,-1l-1,-1l1,-25q1,-25 2,-26q1,-1 27,-1q25,0 27,1q1,2 1,27q0,26 -2,27q-1,1 -6,2l-6,1l0,0l0,0l4,0l4,0l-8,1q-9,1 -10,3q-2,2 -4,5q-3,3 -8,3q-5,0 -20,-4q-16,-6 -22,-6l-6,0l0,0l0,0l-1,0l0,0l0,6q-1,5 -1,8q0,2 -3,7q-3,5 -9,8q-6,3 -269,3q-263,0 -267,-2q-5,-2 -9,-8q-3,-5 -4,-64q-1,-59 2,-64q3,-6 9,-10q6,-4 268,-5q261,-1 268,3q7,4 10,9q4,5 4,51zm263,60l0,-114l111,0l110,0l0,114l0,114l-110,0l-111,0l0,-114zm45,329q0,-1 0,-1q0,0 0,0q0,1 0,1z"/>
  <path id="svg_97" fill="#B1BFD1" fill-rule="evenodd" stroke="#B1BFD1" stroke-width="1px" d="m102,670l0,5l1,2q1,1 1,2l0,0l-1,1l0,0l-7,0q-7,0 -8,-1l-2,-1l2,0l3,0l0,0l1,0l0,-1q0,-1 1,-1l0,-1l1,0q0,-1 0,-1l0,0l0,-5q0,-5 4,-5q4,0 4,6z"/>
  <path id="svg_98" fill="#100A05" fill-rule="evenodd" stroke="#100A05" stroke-width="1px" d="m582,487l1,-15l3,0l4,0l0,1l0,0l1,15l0,14l1,0l2,0l0,0l0,0l-2,1q-2,1 -10,1l-8,0l0,0l0,0l4,-1q4,-1 4,-16z"/>
  <path id="svg_99" fill="#FAFAFB" fill-rule="evenodd" stroke="#FAFAFB" stroke-width="1px" d="m1066,503l0,0l-2,3q-1,4 -1,4l0,0l-1,0q0,0 0,1l0,0l0,1q0,0 -1,0q-1,1 -7,4q-6,4 -64,4l-58,1l0,0q0,-1 -7,-3q-7,-2 -9,-6l-3,-3l0,-1q-1,0 -1,0l0,0l0,0q0,-1 -1,-1l0,0l0,-1q-1,-1 -1,-2l0,0l0,-2q0,-1 -1,-1l0,0l1,-7q2,-8 4,-11q3,-3 8,-6q5,-3 68,-2q62,1 67,4q5,3 7,8q2,5 2,10q0,5 0,6z"/>
  <path id="svg_100" fill="#B28300" fill-rule="evenodd" stroke="#B28300" stroke-width="1px" d="m526,772l0,0l74,0l73,0l13,0l13,0l0,1l1,0l0,14l0,14l-86,0l-86,0l-2,0q-1,0 -1,-14l0,-14l1,0q0,-1 0,-1z"/>
  <path id="svg_101" fill="#B18300" fill-rule="evenodd" stroke="#B18300" stroke-width="1px" d="m673,743l0,-1l21,0l21,0l67,0q66,1 67,2l0,2l0,12l0,12l0,0q0,0 -88,1l-88,0l0,0l-1,0l0,-14q0,-14 1,-14z"/>
  <path id="svg_102" fill="#AE8000" fill-rule="evenodd" stroke="#AE8000" stroke-width="1px" d="m127,680l0,-1l1,0q0,1 1,1l1,0l5,0l5,0l11,0q11,0 11,0l1,0l9,0l8,0l14,0l15,0l11,0q11,0 12,0l0,0l12,0l12,0l7,0l7,0l0,0q0,0 8,1l7,0l0,14l0,14l0,0q-1,0 -1,1l0,0l-48,0l-47,0l-40,0l-40,0l0,0l-1,0l0,-14l0,-15l10,0q9,0 9,-1z"/>
  <path id="svg_103" fill="#E8EAE9" fill-rule="evenodd" stroke="#E8EAE9" stroke-width="1px" d="m978,214l0,7l-6,0l-5,0l0,-7q0,-7 5,-7q6,0 6,7z"/>
  <path id="svg_104" fill="#898150" fill-rule="evenodd" stroke="#898150" stroke-width="1px" d="m519,224l0,0l5,-1l4,0l-2,1q-2,2 1,10q3,8 3,8l0,1l0,1q0,1 1,1l0,0l2,10q3,10 2,11q-1,2 -1,4l0,1l-1,2l0,2l-1,0l0,1l0,0l0,0l0,1l0,1l-2,6q-2,7 -3,8l-1,2l0,1l0,1l-1,1l0,1l1,0l1,0l0,1l0,0l-25,0l-24,0l0,-1l0,-2l1,-1l1,-1l19,-35q19,-35 20,-35z"/>
  <path id="svg_105" fill="#F1F7A2" fill-rule="evenodd" stroke="#F1F7A2" stroke-width="1px" d="m1069,130l0,-1l1,0l0,0l0,70l0,70l-1,0q0,1 -73,1l-74,0l0,0l0,0l8,-8q8,-8 8,-8l0,-1l0,0l0,0l8,-7q6,-6 7,-7q0,-1 1,-1q1,0 1,-1l0,0l2,0l2,0l0,-2q1,-2 1,-2l0,0l0,0l0,0l1,-1l1,-1l0,0l0,-1l1,0l1,0l4,-4q3,-2 3,-3l0,0l3,0l4,-1l1,0l1,0l0,-4l0,-3l0,0l0,0l1,-1l0,-1l1,0l1,-1l0,0l1,0l0,0l0,0l0,-1l0,0l1,0l0,-1l0,0l1,0l23,-22q23,-22 24,-23l0,-1l0,0q1,0 1,0l0,-1l0,0q0,0 1,-1l0,0l16,-14q15,-15 17,-16q0,-2 1,-2z"/>
  <path id="svg_106" fill="#BED1E8" fill-rule="evenodd" stroke="#BED1E8" stroke-width="1px" d="m892,669l2,0l0,0l0,1l4,0q3,0 8,1l6,0l18,1q18,0 27,-2q9,-4 12,-7q3,-3 53,-3l49,0l0,0l1,0l0,10l0,9l-1,0l0,1l-127,0l-127,0l-33,0l-32,0l0,0l0,0l-3,-1l-3,-1l0,0l0,0l1,0l0,0l2,-1l2,-1l1,0l1,0l21,-7q20,-7 26,-7q5,-2 27,-1q22,1 42,4q20,3 23,4z"/>
  <path id="svg_107" fill="#528BD2" fill-rule="evenodd" stroke="#528BD2" stroke-width="1px" d="m794,480l0,0l0,0l0,0l0,1l0,0l8,13q6,13 22,33q14,20 30,35q16,14 20,22q6,8 8,19q4,11 7,31q3,19 7,24q3,6 3,6l1,0l0,0l0,0l0,1l1,0l0,0l0,1l1,0l0,0l0,0l0,0l0,1l0,0l1,0l0,1l-5,0q-4,0 -4,1l0,0l-2,0q-3,-1 -23,-4q-20,-3 -42,-4q-22,-1 -27,1q-6,0 -26,7l-21,7l-1,0l-1,0l-2,1l-2,1l0,0l-1,0l0,0l0,0l3,1l3,1l0,0l0,0l-4,0q-5,0 -10,0q-5,2 -15,8q-11,6 -20,12q-10,6 -19,8l-10,2l-1,0l-1,0l-1,0l-1,0l0,0l-1,0l-4,-1q-4,-1 -15,-3l-11,-2l0,0q-1,-1 -1,-1l0,0l-2,0l-1,-1l-1,0q-2,0 -12,-4q-9,-2 -34,-10q-25,-6 -38,-6q-12,0 -18,2q-5,4 -12,11l-6,7l0,1l0,0l-1,1l-1,1l0,0l0,1l0,0l0,0l-1,0l0,0l0,1l-1,0l0,1l0,1l-10,14q-9,15 -10,16q-2,1 -4,2l-1,0l-2,0l-2,-1l-1,0l-2,0l0,-1q0,0 -4,-3q-4,-3 -9,-14l-6,-12l0,-2q-1,-1 -1,-2q0,0 -4,-23q-2,-23 -3,-84q-1,-61 0,-75l1,-14l0,0l0,0l2,-1l1,0l0,-1l1,-1l0,1q0,1 2,1q1,1 2,1l1,0l0,0l0,0l1,1l1,1l1,0l1,0l6,0q6,0 9,-1q2,-1 2,-2q0,-1 3,-1q3,-1 3,-2l0,-1l2,0q3,1 31,0l28,0l6,0q6,-1 7,-1l2,0l5,0l5,0l8,0q8,0 10,-1l2,-1l0,0l0,0l8,-2q8,-2 18,-6q10,-4 24,-4q13,0 32,4q19,4 20,4l2,0l3,0q3,0 3,-1l0,-1l0,0l1,0l0,1l0,1l19,0q20,0 41,-8q21,-6 25,-8q3,-2 4,-2z"/>
  <path id="svg_108" fill="#AC8002" fill-rule="evenodd" stroke="#AC8002" stroke-width="1px" d="m634,702l1,0l1,1l2,0l0,0l0,1l0,0l1,0l0,3l0,3l-5,0l-5,0l-59,0l-59,0l0,-1l-1,0l0,0l0,0l0,-1l0,-1l1,0l0,-1l0,0l1,0l0,0l0,0l0,-1l0,0l1,-1l1,-1l0,0l0,-1l6,-7q7,-7 12,-11q6,-2 18,-2q13,0 38,6q25,8 34,10q10,4 12,4z"/>
  <path id="svg_109" fill="#F4B802" fill-rule="evenodd" stroke="#F4B802" stroke-width="1px" d="m554,299l10,0l4,0l5,0l2,1q1,0 2,6l1,7l0,-1l0,-1l0,0l0,0l1,0l0,1l17,8q16,9 11,22q-6,14 -8,18q-3,5 -3,6l0,1l-1,1l-1,1l0,0l0,1l0,0l0,0l0,0q-1,0 -33,1q-32,1 -33,0l-1,-1l0,0l-1,-1l0,0l0,-1l0,0l0,0l-1,-1l-1,-1l0,-2q0,-1 -6,-14q-6,-12 -8,-16q-2,-5 14,-13l16,-9l0,0l1,0l0,0l0,0l0,1l1,0l0,-7q1,-6 12,-7z"/>
  <path id="svg_110" fill="#856200" fill-rule="evenodd" stroke="#856200" stroke-width="1px" d="m109,710l0,0l40,0l40,0l0,0l0,1l-1,1q0,0 -1,14l0,14l0,0q-1,0 -1,0q0,0 -24,2l-23,1l0,0q0,-1 -66,-1l-66,0l0,-1l0,0l1,0l2,0l0,-15l0,-14l0,0l1,0l49,-1q49,-1 49,-1z"/>
  <path id="svg_111" fill="#975519" fill-rule="evenodd" stroke="#975519" stroke-width="1px" d="m403,579l1,0l0,1q0,1 0,4l0,2l0,0l0,0l-5,0l-5,0l0,0l0,0l-1,0l0,0l0,0l1,-1l0,0l0,-1l4,-1q4,-2 4,-3q0,-1 1,-1z"/>
  <path id="svg_112" fill="#B3C4D9" fill-rule="evenodd" stroke="#B3C4D9" stroke-width="1px" d="m4,726l0,-15l2,0q3,1 4,1l0,0l0,14l0,15l-2,0l-1,0l-1,0l-2,0l0,-1q0,0 0,-14z"/>
  <path id="svg_113" fill="#805F00" fill-rule="evenodd" stroke="#805F00" stroke-width="1px" d="m170,773l0,0l0,14l0,14l86,0l87,0l0,1l0,0l-170,0l-170,0l0,-1l-1,0l0,-1q0,-1 1,-15l0,-14l68,0l68,0l1,0q1,-1 15,1q14,0 15,1z"/>
  <path id="svg_114" fill="#B38400" fill-rule="evenodd" stroke="#B38400" stroke-width="1px" d="m670,710l0,0l1,0l1,0l0,0l0,0l22,1l23,0l0,0q0,1 1,1l0,0l0,14l0,14l-1,0q0,0 -1,1l-1,0l-86,0l-86,0l0,0l-1,0l0,-15l0,-15l44,0l43,0l21,0l20,-1l0,0z"/>
  <path id="svg_115" fill="#866300" fill-rule="evenodd" stroke="#866300" stroke-width="1px" d="m459,710l0,0l6,12q5,11 9,14q4,3 4,3l0,1l2,0l1,0l2,1l2,0l0,1l0,0l-58,0l-58,0l0,0q0,0 -1,-1l-2,0l0,-15l0,-15l46,0q47,-1 47,-1z"/>
  <path id="svg_116" fill="#272727" fill-rule="evenodd" stroke="#272727" stroke-width="1px" d="m339,590l1,-86l0,12q1,12 6,12q6,1 6,14q2,13 2,72q0,59 0,62l0,3l0,0l0,1l24,0l23,0l0,0l0,1l-24,0l-24,0l-1,9q0,9 -5,9q-4,1 -5,0l-1,0l0,-7q-1,-6 -1,-8q0,-3 -26,-3l-27,-1l-3,0l-3,0l0,0l0,0l11,0q10,0 10,0l1,0l8,0q8,0 15,-1l8,-1l-10,0l-10,0l0,0l0,0l12,-1q11,-1 11,-1q1,0 2,-86z"/>
  <path id="svg_117" fill="#B4C791" fill-rule="evenodd" stroke="#B4C791" stroke-width="1px" d="m936,110l0,0l4,12q4,13 6,24q2,12 1,32q-1,20 -3,31q-2,11 -1,11l0,1l0,1q-1,0 -1,0l0,0l0,0q0,0 0,1l0,1l0,0l0,0l-3,5q-3,5 -3,14l0,9l0,0l-1,0l0,-1l0,0l0,-1l-1,-1l0,-6l0,-6l-1,0l0,1l-1,0l-1,0l-3,0l-2,0l-1,0l-1,0l0,4l0,5l-1,2l0,2l0,0l-1,0l0,-7q0,-8 -3,-11q-2,-3 -3,-2l-1,2l0,0l-1,0l0,-2q0,-2 2,-7q0,-4 0,-29q0,-25 -3,-39l-4,-15l0,0l0,-1l0,0l1,0l0,-2l0,-1l4,-12q4,-12 8,-16q3,-3 7,-3q4,0 5,2q2,1 2,2z"/>
  <path id="svg_118" fill="#FCFCFC" fill-rule="evenodd" stroke="#FCFCFC" stroke-width="1px" d="m936,522l0,0l1,0l1,0l63,2q63,0 66,3q3,3 3,3l1,0l0,38q-1,39 -1,40q0,0 -1,1l0,1l-1,0q0,0 -2,2q-3,2 -68,2l-66,0l0,0l0,0l-1,0l0,0l0,-2q1,-3 1,-14q0,-11 -5,-22q-5,-11 -18,-32l-14,-20l1,-1q2,-1 21,-1q19,0 19,0z"/>
  <path id="svg_119" fill="#4E4E4E" fill-rule="evenodd" stroke="#4E4E4E" stroke-width="1px" d="m863,174l0,-114l111,0l110,0l0,114l0,114l-110,0l-111,0l0,-114zm17,-101l-1,-1l49,0q48,0 95,0l47,0l-39,1q-39,1 -39,1l0,0l39,0l39,0l0,28l0,27l0,70l0,70l-1,0q0,1 -73,1l-74,0l-12,0l-13,0l-9,0l-9,0l0,-1l-1,0l0,-24l0,-24l0,0q0,-1 0,-26l1,-26l0,0l-1,0l0,-47q0,-47 2,-48l1,0l0,0q0,0 -1,-1z"/>
  <path id="svg_120" fill="#C56200" fill-rule="evenodd" stroke="#C56200" stroke-width="1px" d="m698,498l0,0l-2,0q-1,0 -20,-4q-19,-4 -32,-4q-14,0 -24,4q-10,4 -18,6l-8,2l-2,0l-1,0l0,-14l-1,-15l0,0l0,-1l-4,0l-3,0l-1,15q0,15 -4,16l-4,1l0,0l0,0l-5,0l-5,0l0,-57l0,-57l1,0l0,0l66,-1q65,0 66,54q1,54 1,55z"/>
  <path id="svg_121" fill="#B28400" fill-rule="evenodd" stroke="#B28400" stroke-width="1px" d="m817,696l0,-15l87,0l88,0l0,11q0,10 0,14l0,4l-48,0l-47,0l-40,0l-40,0l0,-14z"/>
 </g>
</svg>