<?xml version="1.0"?><svg width="744.09448819" height="1052.3622047" xmlns="http://www.w3.org/2000/svg">
 <title>queen crown</title>
 <defs>
  <clipPath id="clipPath37527" clipPathUnits="userSpaceOnUse">
   <path fill="none" stroke="#ececec" stroke-width="3.155635" d="m1555.891968,1355.892334c1.446045,13.312378 3.634399,27.198242 7.57312,40.336548c6.263794,20.893311 16.633301,40.478638 34.97876,49.341309c13.292358,6.421631 27.227295,-0.241211 38.58374,-8.412109c7.548828,-5.431152 14.086548,-11.872314 19.968506,-18.138794c-0.961548,11.985596 -1.63562,24.50293 -0.264526,36.664307c1.839722,16.31604 7.56958,32.67981 21.700195,41.44458c12.11084,7.512085 25.04187,8.093628 36.562866,4.466797c1.684692,-0.530151 3.254883,-1.337769 4.88147,-2.022583c-7.08313,9.987305 -12.61377,18.799683 -16.001587,25.620728c-2.461792,4.957031 -3.90918,8.790771 -5.006836,12.077759l-327.851074,-43.182495c-0.011963,-10.395874 -1.350708,-19.803223 -4.256226,-29.317627c-1.456177,-4.769409 -3.381226,-9.737061 -5.522095,-14.892334c3.625244,2.534912 7.191406,4.704346 10.737549,6.118164c10.315674,4.112549 19.907471,3.153442 29.228149,1.583862c7.995239,-1.346436 14.576416,-6.346558 19.484131,-12.44165c4.890747,-6.073486 8.465454,-13.363403 11.394409,-21.0448c3.944824,-10.345947 6.529297,-21.434082 8.431641,-31.603638c4.530273,7.72522 9.957153,15.825439 16.697754,22.791626c10.155884,10.495605 24.019531,18.860107 39.825317,15.168213c18.581177,-4.339844 32.195435,-20.370117 42.647827,-38.513062c6.557129,-11.381592 11.758179,-23.874023 16.206909,-36.0448z" id="path37529"/>
  </clipPath>
 </defs>
 <metadata id="metadata37552">image/svg+xml</metadata>
 <g>
  <title>Layer 1</title>
  <g id="layer1">
   <path fill="#7f007f" id="path37379" d="m369.846619,361.346375c0,0 -24.165405,30.554718 -10.0625,55.75c-8.362,-5.981995 -20.279694,-13.21579 -29.0625,-13.3125c-30.709198,-0.338715 -8.26709,42.781311 2.375,27.656281c-7.572693,-11.811279 15.596191,-16.714783 21.843811,-4.6875c3.529083,6.793915 -20.958221,25.904144 -8.218811,24.312531c12.7388,-1.591675 14.25,-10.156311 14.25,-10.156311l4.406311,10.625c-5.816803,32.735168 -18.756317,77.650818 -46.5,87.25c-22.363312,7.73761 -45.029297,-17.182434 -57.218811,-33.875l0.875,-12.031189c0,0 4.002594,7.598511 16.5625,4.906189c12.559204,-2.692261 -16.686005,-12.688904 -15.5,-20.28125c2.099396,-13.440613 25.641205,-16.641846 22.218811,-2.96875c14.865784,10.805725 22.422791,-37.254089 -6.531311,-26.8125c-8.633087,3.113708 -17.591187,14.23584 -23.593704,22.78125c5.333511,-28.251648 -26.843796,-50.21875 -26.843796,-50.21875c0,0 -13.179092,37.229187 8.593796,56.343811c-9.867188,-2.995728 -23.46669,-6.273804 -32.093796,-3.375c-29.167999,9.800598 5.723206,43.320679 11,25.499939c-10.910095,-8.681458 9.337799,-20.978821 19.0625,-11.65625c5.492905,5.266174 -11.644394,31.423523 -0.093994,25.718811c11.55069,-5.704712 10.375,-14.281311 10.375,-14.281311l7.1875,8.281311c-0.181503,22.980103 -3.814301,61.934265 -24.031204,67.625c-17.203903,4.842468 -28.356995,5.922302 -56.781296,-17.125l-1.781204,-5.9375c0,0 7.157303,4.641174 17.031204,-3.718811c9.874588,-8.360107 -20.541306,-3.283813 -22.968704,-10.5625c-4.296707,-12.888977 15.047104,-26.595703 18.281204,-12.875c18.093994,2.479004 2.605103,-43.767395 -18.218704,-20.75c-6.159103,6.807922 -8.871094,20.788696 -10.281296,31.1875c-8.0513,-28.122742 -49.406303,-30.718689 -49.406303,-30.718689c23.639198,22.995789 33.8386,26.43689 62.843803,58.75c20.998489,30.289612 28.968002,41.932983 30.468689,66.718689l343.593811,0.593811c0,0 -1.892883,-21.957825 38.093689,-75.031311c23.982239,-25.599121 34.362305,-30.234009 56.0625,-51.343689c0,0 -41.35498,2.595947 -49.406189,30.718689c-1.410217,-10.398804 -4.122192,-24.379578 -10.281311,-31.1875c-20.823792,-23.017273 -36.312683,23.228882 -18.218689,20.75c3.233398,-13.720703 22.578613,-0.013977 18.281189,12.875c-2.427368,7.278687 -32.84259,2.202393 -22.968689,10.5625c9.874512,8.359985 17.0625,3.718811 17.0625,3.718811l-2.4375,8.031189c-17.929321,15.81842 -34.588684,27.868286 -55.8125,18.968811c-22.911682,-9.607239 -24.9133,-43.403931 -25.968781,-71.1875l7.281281,-8.343811c0,0 -1.17569,8.576599 10.375,14.281311c11.55072,5.704712 -5.58728,-20.452637 -0.093994,-25.718811c9.72467,-9.322571 29.972595,2.974792 19.0625,11.65625c5.276794,17.82074 40.168701,-15.699341 11,-25.499939c-8.627075,-2.898804 -22.257904,0.379272 -32.125,3.375c21.773621,-19.114624 8.625,-56.343811 8.625,-56.343811c0,0 -32.176605,21.967102 -26.843811,50.21875c-6.002502,-8.54541 -14.960602,-19.667542 -23.593781,-22.78125c-28.954102,-10.441589 -21.396423,37.618225 -6.531219,26.8125c-3.422485,-13.673096 20.087402,-10.471863 22.1875,2.96875c1.186005,7.592346 -28.028687,17.588989 -15.468781,20.28125c12.559906,2.692322 16.5625,-4.906189 16.5625,-4.906189l0.75,10.624939c-11.532013,16.353333 -33.251617,42.426819 -51.125,36.937561c-30.846497,-9.473999 -45.132111,-56.02124 -51.5,-89.406311l4.093781,-9.968719c0,0 1.510498,8.564606 14.25,10.156219c12.7388,1.591553 -11.747894,-17.518616 -8.218781,-24.3125c6.247589,-12.027222 29.416382,-7.155029 21.843781,4.656281c10.64212,15.125092 33.084198,-27.963684 2.375,-27.625c-8.991302,0.098999 -21.241577,7.692413 -29.625,13.75c14.063904,-24.986084 -9.468781,-56.343781 -9.468781,-56.343781l0.00058,0z" stroke="#7f007f" stroke-width="4"/>
   <rect opacity="0.937743" fill="#7f007f" y="641.45599" x="197.0428" height="24.161131" width="343.57831" id="rect37397"/>
  </g>
 </g>
</svg>